<?xml version="1.0" standalone="no"?>
<!DOCTYPE svg PUBLIC "-//W3C//DTD SVG 20010904//EN"
 "http://www.w3.org/TR/2001/REC-SVG-20010904/DTD/svg10.dtd">
<svg version="1.0" xmlns="http://www.w3.org/2000/svg"
 width="1400.000000pt" height="1400.000000pt" viewBox="0 0 1400.000000 1400.000000"
 preserveAspectRatio="xMidYMid meet">
<metadata>
Created by potrace 1.14, written by Peter Selinger 2001-2017
</metadata>
<g transform="translate(0.000000,1400.000000) scale(0.100000,-0.100000)"
fill="#000000" stroke="none">
<path d="M0 7000 l0 -5250 7000 0 7000 0 0 5250 0 5250 -7000 0 -7000 0 0
-5250z m6025 4260 c61 -6 243 -37 405 -70 346 -70 418 -80 550 -80 129 0 276
21 533 76 303 64 386 76 532 76 328 0 488 -100 901 -558 313 -348 382 -397
874 -614 406 -179 560 -293 673 -500 74 -134 113 -306 147 -635 55 -525 84
-618 326 -1027 223 -376 283 -539 284 -759 0 -191 -57 -359 -217 -637 -47 -81
-114 -199 -151 -262 -155 -272 -190 -392 -237 -840 -40 -381 -71 -516 -153
-674 -35 -70 -65 -110 -127 -172 -126 -127 -250 -201 -563 -338 -229 -101
-377 -175 -470 -238 -98 -66 -235 -198 -428 -415 -183 -204 -279 -295 -395
-373 -164 -110 -310 -147 -527 -137 -127 7 -206 20 -569 96 -382 80 -510 76
-983 -24 -363 -77 -530 -92 -688 -59 -228 47 -373 154 -701 518 -335 372 -404
422 -866 626 -126 56 -259 118 -295 137 -376 209 -491 407 -550 948 -65 600
-84 665 -331 1087 -207 354 -275 524 -286 710 -13 226 51 413 268 778 249 420
286 529 334 994 42 398 74 538 157 698 45 88 138 194 229 263 95 70 235 144
474 250 461 203 530 253 870 630 185 205 273 292 363 358 160 117 269 156 492
176 8 0 65 -4 125 -9z"/>
<path d="M5608 10519 c-21 -12 -24 -56 -5 -84 48 -70 107 -279 107 -376 l0
-38 -387 -3 c-369 -3 -390 -4 -433 -24 -54 -25 -103 -72 -133 -128 -20 -38
-22 -57 -25 -242 l-3 -202 -157 -4 c-169 -5 -192 -11 -268 -66 -28 -20 -52
-51 -73 -93 -75 -151 -13 -329 139 -398 39 -18 66 -21 203 -21 l157 0 0 -180
0 -180 -148 0 c-173 0 -218 -11 -286 -71 -64 -56 -96 -126 -96 -209 0 -126 53
-215 158 -267 54 -26 66 -28 215 -31 l157 -4 0 -174 0 -174 -130 0 c-160 0
-214 -11 -282 -58 -145 -102 -161 -321 -32 -444 71 -68 108 -78 287 -78 l157
0 0 -180 0 -180 -148 0 c-174 0 -218 -11 -288 -73 -64 -56 -94 -123 -94 -208
0 -123 54 -215 158 -266 54 -26 65 -28 215 -31 l157 -4 0 -173 0 -173 -157 -4
c-180 -4 -221 -16 -290 -85 -55 -55 -76 -105 -81 -191 -5 -91 14 -148 72 -210
72 -78 97 -86 288 -90 l167 -4 3 -366 c3 -417 1 -407 91 -489 81 -75 64 -73
823 -73 l672 0 -16 -42 c-21 -58 -21 -193 0 -235 15 -31 15 -32 -18 -64 -39
-38 -46 -82 -15 -99 30 -15 38 -13 80 25 l38 35 39 -17 c59 -25 174 -21 255 9
75 28 179 94 259 166 54 48 58 50 103 45 l47 -6 93 91 93 91 804 3 805 3 41
22 c66 35 101 70 129 127 l26 53 0 437 c0 240 -3 441 -6 446 -9 14 -59 12 -73
-2 -9 -9 -12 -83 -12 -270 0 -281 -3 -300 -56 -350 -16 -15 -42 -32 -57 -37
-19 -7 -220 -11 -600 -11 l-571 0 107 109 c87 88 107 113 107 137 0 21 11 41
38 67 l38 37 319 2 c312 3 320 3 320 23 0 19 -8 20 -294 25 l-294 5 248 240
247 240 52 -3 c93 -6 162 66 152 159 l-5 47 125 117 124 117 0 -44 c0 -48 13
-68 45 -68 37 0 45 19 45 115 l0 90 173 166 c189 182 230 239 245 340 l7 54
25 -55 c19 -44 24 -72 25 -140 0 -77 -3 -92 -33 -153 -30 -61 -51 -84 -221
-235 -382 -342 -463 -416 -477 -443 -58 -113 50 -243 174 -210 26 7 52 17 59
23 26 22 143 192 143 209 0 22 -26 49 -47 49 -20 0 -64 -48 -115 -126 -46 -71
-73 -86 -113 -60 -17 11 -25 26 -25 46 0 23 13 40 67 87 566 493 633 561 668
676 43 142 16 297 -70 413 l-24 31 75 74 c86 85 109 133 102 209 -10 100 -90
172 -193 173 -70 1 -114 -26 -215 -127 l-85 -86 -72 0 -73 0 0 244 0 243 62
88 c155 217 406 485 572 610 105 80 105 94 -8 169 -186 124 -370 323 -569 614
l-57 83 0 422 c0 387 -2 425 -19 462 -27 60 -67 103 -125 133 l-51 27 -266 3
c-236 3 -268 1 -283 -13 -20 -20 -20 -35 -2 -61 13 -18 32 -19 278 -24 252 -5
265 -6 300 -28 21 -13 45 -40 57 -66 21 -42 21 -46 21 -1492 l0 -1450 -32 -19
c-18 -10 -185 -168 -371 -351 l-339 -332 -52 1 c-65 1 -113 -25 -141 -76 l-20
-37 -185 -2 c-157 -3 -185 -5 -185 -18 0 -13 29 -15 186 -18 184 -2 187 -3
193 -25 5 -19 -32 -58 -237 -259 l-242 -237 -187 0 c-181 -1 -188 -2 -188 -21
0 -19 7 -20 167 -20 l167 0 -49 -50 c-40 -40 -56 -50 -83 -50 -31 0 -59 -24
-300 -259 -147 -143 -325 -318 -397 -390 l-130 -131 -428 0 c-276 0 -435 -4
-448 -10 -21 -12 -25 -50 -7 -68 9 -9 118 -12 430 -12 370 0 419 -2 425 -16 3
-9 -6 -27 -23 -45 l-28 -29 -186 0 c-140 0 -191 -3 -205 -13 -40 -30 -7 -37
170 -37 l175 0 -32 -45 -32 -45 -722 2 c-712 3 -723 3 -750 24 -37 27 -62 62
-74 102 -9 34 -9 34 13 18 68 -49 76 -51 249 -54 150 -3 169 -2 174 13 12 29
-17 35 -166 34 -80 -1 -157 4 -171 9 -43 17 -97 70 -104 103 -9 40 -2 45 32
22 57 -40 86 -43 407 -43 229 0 315 3 324 12 18 18 14 56 -7 68 -12 6 -133 10
-323 10 -296 0 -304 1 -343 23 -70 40 -81 67 -89 223 -4 75 -5 219 -1 320 l8
184 81 0 c108 0 147 12 189 59 50 55 58 114 26 178 -38 76 -62 87 -192 93
l-112 5 -3 90 c-2 50 0 186 3 303 l7 212 95 0 c135 0 187 29 214 120 16 52 4
104 -34 147 -45 51 -81 63 -192 63 l-95 0 0 148 c0 82 3 217 7 300 l6 152 89
0 c104 0 141 13 185 63 50 58 55 126 13 194 -34 56 -62 67 -185 73 l-110 5 -3
90 c-2 50 0 186 3 303 l7 212 103 0 c122 0 156 16 194 93 32 65 24 123 -26
178 -43 47 -81 59 -195 59 l-88 0 0 148 c0 82 3 217 7 300 l6 152 89 0 c99 0
139 12 180 56 51 55 60 112 29 180 -32 71 -68 88 -196 94 l-110 5 -3 168 c-3
183 5 230 44 277 54 64 -28 60 1224 60 l1140 0 -40 -80 c-44 -87 -49 -124 -24
-176 43 -90 158 -116 237 -53 15 11 61 85 102 164 l76 145 320 0 c306 0 320 1
339 20 24 24 25 43 4 64 -13 14 -55 16 -309 16 l-294 0 45 93 c43 87 45 96 42
162 -3 59 -8 77 -35 117 -81 116 -252 131 -348 30 -17 -18 -73 -114 -125 -214
l-96 -183 -426 -3 -426 -2 -1 124 c-1 188 -29 359 -61 376 -25 14 -579 13
-602 -1z m544 -114 l5 -25 -157 0 c-144 0 -160 -2 -184 -21 -23 -18 -26 -28
-26 -77 l0 -57 -35 100 c-19 55 -35 101 -35 103 0 1 96 2 214 2 l214 0 4 -25z
m1417 -29 c35 -18 57 -52 66 -98 6 -29 -2 -51 -50 -146 l-57 -112 -69 0 -69 0
45 91 c50 98 54 137 19 150 -36 13 -61 -16 -119 -132 -43 -84 -60 -109 -75
-109 -11 0 -20 2 -20 5 0 9 78 164 127 251 24 44 57 88 71 97 33 20 94 22 131
3z m-145 -563 c-67 -126 -82 -145 -120 -145 -29 0 -64 32 -64 58 0 8 20 55 45
104 l45 90 75 0 75 0 -56 -107z m-2393 -511 c30 -25 30 -75 0 -105 -21 -21
-29 -22 -293 -25 -175 -2 -277 -7 -285 -14 -18 -14 -16 -48 3 -69 20 -22 11
-37 -32 -55 -86 -36 -129 -3 -128 95 1 85 39 142 114 175 28 12 88 15 316 16
259 0 284 -1 305 -18z m4136 -619 c146 -196 282 -338 437 -453 l58 -44 -23
-19 c-160 -127 -351 -324 -494 -509 l-60 -78 -3 51 c-2 40 2 60 24 97 34 59
116 172 143 196 23 21 28 51 10 61 -15 10 -48 -24 -116 -116 l-58 -79 -3 41
c-3 33 3 53 27 91 17 27 31 56 31 64 0 20 -37 18 -49 -3 -7 -13 -10 109 -11
395 0 226 2 412 4 412 2 0 39 -48 83 -107z m-4154 -304 c35 -16 49 -51 36 -89
-6 -17 -19 -35 -29 -40 -11 -6 -129 -10 -280 -10 -161 0 -269 -4 -281 -10 -24
-13 -25 -53 -2 -76 16 -16 15 -18 -11 -40 -20 -18 -39 -24 -76 -24 -61 0 -75
19 -74 107 1 94 48 154 144 184 41 12 546 11 573 -2z m17 -947 c28 -23 30 -75
4 -103 -16 -18 -34 -19 -283 -19 -225 0 -270 -2 -289 -16 -26 -18 -29 -50 -6
-75 20 -22 14 -32 -30 -53 -85 -40 -131 -7 -130 93 1 82 35 135 109 174 25 14
75 16 316 17 264 0 289 -1 309 -18z m3949 -750 c1 -18 -6 -47 -15 -65 -25 -49
-115 -137 -140 -137 -17 0 -23 -7 -26 -27 -2 -21 -8 -28 -25 -28 -31 0 -353
-321 -350 -348 1 -11 -6 -24 -16 -31 -16 -9 -24 -5 -53 29 -18 22 -33 42 -31
45 1 3 146 147 321 320 341 335 333 330 335 242z m-3966 -173 c34 -15 49 -52
36 -86 -19 -52 -24 -52 -314 -53 -197 0 -274 -3 -283 -12 -17 -17 -15 -54 5
-74 16 -16 15 -18 -11 -40 -20 -18 -39 -24 -76 -24 -61 0 -75 19 -74 106 1 93
49 158 134 182 50 14 553 15 583 1z m3280 -784 c97 -100 177 -183 177 -186 0
-3 -138 -140 -307 -304 l-306 -300 -183 190 c-136 141 -180 193 -171 201 7 5
143 140 304 298 161 158 296 286 300 284 4 -2 88 -84 186 -183z m-3258 -165
c22 -25 22 -76 -1 -101 -16 -18 -34 -19 -283 -19 -225 0 -270 -2 -289 -16 -25
-17 -29 -56 -8 -74 21 -16 10 -36 -29 -54 -48 -23 -92 -21 -109 7 -38 58 -27
152 24 211 57 64 64 66 386 66 278 0 292 -1 309 -20z m3955 -1025 c0 -31 -55
-94 -97 -111 -18 -8 -66 -14 -107 -14 -87 0 -106 -5 -106 -31 0 -17 8 -19 89
-19 97 0 140 11 189 47 35 26 39 19 18 -30 -16 -39 -61 -82 -99 -96 -19 -8
-268 -11 -765 -11 l-737 0 117 115 116 115 634 0 634 0 55 29 c30 15 55 29 57
30 1 0 2 -10 2 -24z m-2102 -508 c-122 -112 -251 -177 -348 -177 -109 0 -160
50 -160 157 0 99 49 197 166 332 l59 69 168 -167 168 -166 -53 -48z"/>
<path d="M9279 8024 c-9 -11 -9 -18 -1 -26 14 -14 42 -3 42 16 0 20 -27 27
-41 10z"/>
<path d="M7910 5601 c0 -22 6 -43 13 -48 6 -4 48 -10 92 -13 l80 -5 3 -49 3
-48 40 42 c37 38 40 46 37 88 l-3 47 -100 12 c-55 6 -115 12 -132 12 -32 1
-33 0 -33 -38z"/>
<path d="M7760 5462 c0 -98 66 -198 153 -230 l50 -19 34 33 c18 18 33 35 33
38 0 2 -17 7 -38 11 -82 14 -141 81 -142 163 0 31 -1 32 -45 32 -43 0 -45 -1
-45 -28z"/>
<path d="M8225 4397 c-41 -31 -8 -37 196 -37 174 0 200 2 206 16 3 9 0 20 -8
25 -24 15 -372 11 -394 -4z"/>
<path d="M6579 4311 c-8 -10 -33 -42 -56 -71 -43 -52 -55 -90 -29 -90 8 0 29
19 47 43 18 23 48 59 66 80 19 21 31 42 28 47 -10 16 -42 11 -56 -9z"/>
<path d="M6445 4120 c-4 -7 -3 -16 3 -22 14 -14 45 -2 40 15 -6 16 -34 21 -43
7z"/>
<path d="M5380 9460 c0 -20 4 -20 593 -18 518 3 592 5 592 18 0 13 -74 15
-592 18 -589 2 -593 2 -593 -18z"/>
<path d="M6635 9470 c-15 -24 12 -30 121 -30 107 0 114 1 114 20 0 19 -7 20
-114 20 -66 0 -117 -4 -121 -10z"/>
<path d="M7665 9470 c-3 -5 -3 -14 0 -20 4 -6 178 -10 491 -10 477 0 484 0
484 20 0 20 -7 20 -484 20 -313 0 -487 -4 -491 -10z"/>
<path d="M5384 8855 c-3 -8 -3 -19 1 -25 4 -7 328 -10 1034 -10 1053 0 1070 1
1040 37 -9 11 -199 13 -1041 13 -890 0 -1029 -2 -1034 -15z"/>
<path d="M7514 8855 c-13 -33 6 -35 280 -35 278 0 311 4 285 37 -17 20 -557
19 -565 -2z"/>
<path d="M8133 8854 c-9 -23 13 -40 32 -24 12 10 13 16 4 26 -15 18 -28 18
-36 -2z"/>
<path d="M8223 8855 c-3 -9 -1 -21 4 -26 5 -5 92 -8 209 -7 191 3 199 4 199
23 0 19 -8 20 -203 23 -177 2 -203 0 -209 -13z"/>
<path d="M5384 8295 c-3 -8 -3 -19 1 -25 8 -13 1713 -14 1734 -1 8 5 11 16 8
25 -6 14 -88 16 -872 16 -748 0 -866 -2 -871 -15z"/>
<path d="M7175 8300 c-4 -6 -1 -17 5 -26 11 -12 111 -14 734 -12 713 3 721 3
721 23 0 20 -8 20 -727 23 -500 1 -729 -1 -733 -8z"/>
<path d="M5384 7735 c-3 -8 -3 -19 1 -25 9 -15 2917 -14 2932 1 6 6 9 18 6 25
-8 22 -2931 21 -2939 -1z"/>
<path d="M8373 7734 c-10 -28 18 -34 142 -32 112 3 120 4 120 23 0 19 -8 20
-128 23 -110 2 -128 0 -134 -14z"/>
<path d="M5380 7170 c0 -20 7 -20 850 -20 843 0 850 0 850 20 0 20 -7 20 -850
20 -843 0 -850 0 -850 -20z"/>
<path d="M7137 7183 c-14 -13 -6 -33 13 -33 13 0 20 7 20 20 0 19 -20 27 -33
13z"/>
<path d="M7227 7183 c-4 -3 -7 -12 -7 -20 0 -11 125 -13 710 -13 703 0 710 0
710 20 0 20 -7 20 -703 20 -387 0 -707 -3 -710 -7z"/>
<path d="M5380 6610 c0 -20 4 -20 1268 -18 1118 3 1267 5 1267 18 0 13 -149
15 -1267 18 -1264 2 -1268 2 -1268 -18z"/>
<path d="M7965 6620 c-16 -27 16 -30 296 -30 282 0 289 0 289 20 0 20 -7 20
-289 20 -183 0 -292 -4 -296 -10z"/>
<path d="M5380 6050 c0 -20 4 -20 1118 -18 985 3 1117 5 1117 18 0 13 -132 15
-1117 18 -1114 2 -1118 2 -1118 -18z"/>
<path d="M5380 5490 c0 -20 7 -20 835 -20 828 0 835 0 835 20 0 20 -7 20 -835
20 -828 0 -835 0 -835 -20z"/>
<path d="M7100 5489 c0 -25 33 -22 38 4 2 12 -3 17 -17 17 -15 0 -21 -6 -21
-21z"/>
<path d="M5384 4975 c-3 -8 -3 -19 1 -25 4 -7 192 -10 584 -10 468 0 581 3
590 13 29 35 0 37 -591 37 -497 0 -579 -2 -584 -15z"/>
<path d="M5302 4383 c4 -22 43 -25 43 -3 0 8 -11 16 -23 18 -19 3 -23 0 -20
-15z"/>
</g>
</svg>
